<svg xmlns="http://www.w3.org/2000/svg" width="20" height="20" viewBox="0 0 20 20">
    <path d="M12.224 0C7.937 0 4.447 3.49 4.447 7.776c0 1.863.653 3.57 1.75 4.91L0 18.881 1.118 20l6.197-6.197c1.34 1.097 3.046 1.75 4.909 1.75 4.286 0 7.776-3.49 7.776-7.777C20 3.49 16.51 0 12.224 0zm0 1.555c3.444 0 6.22 2.777 6.22 6.221 0 3.445-2.776 6.222-6.22 6.222-3.445 0-6.222-2.777-6.222-6.222 0-3.444 2.777-6.22 6.222-6.22z" transform="translate(-1043 -20) translate(0 -3) translate(1031 13) matrix(-1 0 0 1 32 10)"/>
</svg>