<svg xmlns="http://www.w3.org/2000/svg" width="24" height="24" viewBox="0 0 24 24">
    <defs>
        <filter id="xtr8ynvqga">
            <feColorMatrix in="SourceGraphic" values="0 0 0 0 0.772549 0 0 0 0 0.772549 0 0 0 0 0.772549 0 0 0 1.000000 0"/>
        </filter>
    </defs>
    <g fill="none" fill-rule="evenodd">
        <g>
            <g>
                <g filter="url(#xtr8ynvqga)" transform="translate(-945 -920) translate(0 857) translate(809 29)">
                    <g>
                        <path fill="#FFF" fill-rule="nonzero" d="M12 0C5.374 0 0 5.374 0 12s5.374 12 12 12 12-5.374 12-12S18.626 0 12 0zm6.02 9.182v1.624c-.766 0-1.51-.15-2.213-.446-.451-.19-.872-.436-1.256-.733l.011 5.002c-.005 1.126-.45 2.184-1.257 2.98-.656.65-1.487 1.062-2.389 1.196-.211.031-.427.047-.645.047-.965 0-1.88-.312-2.63-.889-.141-.109-.276-.226-.404-.353-.874-.864-1.325-2.035-1.249-3.266.058-.938.433-1.832 1.059-2.532.828-.928 1.986-1.442 3.224-1.442.218 0 .434.016.645.047V12.69c-.2-.066-.415-.102-.638-.102-1.132 0-2.047.923-2.03 2.055.01.724.407 1.357.99 1.706.274.164.59.266.927.285.263.014.517-.023.751-.1.809-.267 1.392-1.026 1.392-1.922l.002-3.349V5.148h2.238c.002.222.025.438.066.647.17.849.648 1.585 1.313 2.087.58.438 1.303.697 2.087.697h.006v.603z" transform="translate(136 34)"/>
                    </g>
                </g>
            </g>
        </g>
    </g>
</svg>