<svg xmlns="http://www.w3.org/2000/svg" width="24" height="24" viewBox="0 0 24 24">
    <defs>
        <filter id="n181yc5sea">
            <feColorMatrix in="SourceGraphic" values="0 0 0 0 0.772277 0 0 0 0 0.772277 0 0 0 0 0.772277 0 0 0 1.000000 0"/>
        </filter>
    </defs>
    <g fill="none" fill-rule="evenodd">
        <g>
            <g>
                <g filter="url(#n181yc5sea)" transform="translate(-877 -920) translate(0 857) translate(809 29)">
                    <g>
                        <path fill="#000" fill-rule="nonzero" d="M12 0C5.374 0 0 5.374 0 12s5.374 12 12 12 12-5.374 12-12S18.626 0 12 0zm5.48 9.356c.004.118.007.237.007.356 0 3.64-2.77 7.837-7.837 7.837-1.555 0-3.003-.456-4.222-1.237.216.025.435.038.657.038 1.29 0 2.478-.44 3.421-1.18-1.205-.022-2.222-.818-2.573-1.912.168.032.34.05.518.05.251 0 .495-.034.726-.097-1.26-.253-2.21-1.367-2.21-2.7v-.036c.372.207.796.331 1.248.345-.74-.494-1.225-1.337-1.225-2.293 0-.504.136-.977.373-1.384C7.72 8.809 9.75 9.905 12.04 10.02c-.047-.202-.072-.412-.072-.628 0-1.52 1.234-2.755 2.755-2.755.792 0 1.508.335 2.01.87.628-.123 1.217-.352 1.75-.668-.207.643-.643 1.183-1.212 1.524.557-.067 1.088-.215 1.582-.434-.369.552-.836 1.038-1.374 1.426z" transform="translate(68 34)"/>
                    </g>
                </g>
            </g>
        </g>
    </g>
</svg>