<svg xmlns="http://www.w3.org/2000/svg" viewBox="0 0 140 70">
    <g fill="none" fill-rule="evenodd">
        <g>
            <g>
                <path fill="#000" stroke="#FFF" stroke-width="2" d="M139 1v68H1V1h138z" transform="translate(-50 -40) translate(50 40)"/>
                <g fill="#FFCA05">
                    <path d="M0 0L18.211 0 18.211 8.405 10.922 8.405 10.922 16.369 17.744 16.369 17.744 24.359 10.922 24.359 10.922 33.595 18.938 33.595 18.938 42 0 42zM44.096 0l-3.84 18.574L46.041 42H35.924c-1.21-4.187-2.317-9.29-3.32-15.305-.275 2.664-.66 5.483-1.153 8.457L30.424 42H19.788l3.969-23.426L19.787 0h10.56c.191 1.157.57 3.084 1.137 5.783.458 2.056.831 3.951 1.12 5.683L34.937 0h9.158z" transform="translate(-50 -40) translate(50 40) translate(11.375 14)"/>
                    <path d="M69.568 0l-3.84 18.574L71.515 42H61.396c-1.208-4.187-2.316-9.29-3.32-15.305-.274 2.664-.658 5.483-1.152 8.457L55.897 42H45.261l3.969-23.426L45.26 0h10.56c.19 1.157.57 3.084 1.138 5.783.457 2.056.83 3.951 1.118 5.683L60.41 0h9.158zM72.095 0L90.306 0 90.306 8.405 83.016 8.405 83.016 16.369 89.839 16.369 89.839 24.359 83.016 24.359 83.016 33.595 91.033 33.595 91.033 42 72.095 42zM117.365 0L117.365 42 107.792 42 102.111 22.907 102.111 42 92.979 42 92.979 0 102.111 0 108.233 18.912 108.233 0z" transform="translate(-50 -40) translate(50 40) translate(11.375 14)"/>
                </g>
                <path fill="#000" d="M87.525 38.182L94.29 38.182 94.29 30.229 87.525 30.229z" transform="translate(-50 -40) translate(50 40)"/>
            </g>
        </g>
    </g>
</svg>
